<?xml version="1.0" encoding="utf-8"?>
<!-- Generator: Adobe Illustrator 23.0.2, SVG Export Plug-In . SVG Version: 6.00 Build 0)  -->
<svg version="1.1" id="Capa_1" xmlns="http://www.w3.org/2000/svg" xmlns:xlink="http://www.w3.org/1999/xlink" x="0px" y="0px"
	 viewBox="0 0 55 55" style="enable-background:new 0 0 55 55;" xml:space="preserve">
<style type="text/css">
	.st0{fill:#4E77F9;}
</style>
<path class="st0" d="M51.5,55h-48C1.6,55,0,52.6,0,50.1V4.9C0,2.2,1.7,0,3.5,0h48c2,0,3.5,2.4,3.5,4.9V50C55.1,52.8,53.4,55,51.5,55
	z"/>
<g>
	<path d="M3.3,32.8c0-0.6,0.2-1.1,0.6-1.5c0.4-0.3,1-0.6,1.5-0.6S6.7,31,7,31.3c0.4,0.4,0.6,0.9,0.6,1.5c0,0.6-0.2,1.1-0.6,1.5
		c-0.4,0.4-1,0.6-1.5,0.6s-1.3-0.3-1.6-0.5C3.6,33.8,3.3,33.4,3.3,32.8z"/>
	<path d="M12.2,36.2H9.4l7.2-21h2.8L12.2,36.2z"/>
	<path d="M27,20.3v15.1c0,1.5-0.5,2.8-1.3,3.7c-0.9,0.9-2.1,1.3-3.6,1.3c-0.7,0-1.3-0.1-2-0.2v-3.1c0.5,0.1,0.9,0.1,1.2,0.1
		c1.2,0,1.8-0.6,1.8-1.8V20.2H27L27,20.3L27,20.3z M23,16.6c0-0.6,0.2-1.1,0.6-1.5c0.4-0.4,1-0.6,1.5-0.6c0.5,0,1.2,0.2,1.5,0.6
		c0.4,0.4,0.6,0.9,0.6,1.5c0,0.5-0.2,1.1-0.6,1.5c-0.4,0.4-1,0.6-1.5,0.6c-0.5,0-1.2-0.2-1.5-0.6C23.1,17.5,23,17,23,16.6z"/>
	<path d="M34.7,20.3l0.1,1.5c1-1.2,2.4-2,4.1-2c1.8,0,3.2,0.7,3.8,2.2c1-1.5,2.4-2.2,4.4-2.2c1.5,0,2.7,0.5,3.5,1.3
		c0.7,1,1.2,2.3,1.2,4.1v9.4h-3.8v-9.2c0-0.9-0.1-1.5-0.5-1.8c-0.4-0.5-0.9-0.6-1.6-0.6c-1.2,0-2,0.6-2.4,1.6v9.8h-3.8v-9.2
		c0-0.9-0.1-1.5-0.5-1.8c-0.4-0.4-0.9-0.6-1.6-0.6c-1.1,0-2,0.5-2.4,1.3v10.2h-3.8v-14H34.7z"/>
</g>
</svg>
